<svg width="60" height="60" viewBox="0 0 60 60" fill="none" xmlns="http://www.w3.org/2000/svg">
  <path d="M48.75 18.75H45V11.25C45 9.179 43.321 7.5 41.25 7.5H33.75C31.679 7.5 30 9.179 30 11.25V26.25H15V11.25C15 9.179 13.321 7.5 11.25 7.5H3.75C1.679 7.5 0 9.179 0 11.25V18.75H3.75C5.821 18.75 7.5 20.429 7.5 22.5V37.5C7.5 39.571 5.821 41.25 3.75 41.25H0V48.75C0 50.821 1.679 52.5 3.75 52.5H11.25C13.321 52.5 15 50.821 15 48.75V33.75H30V48.75C30 50.821 31.679 52.5 33.75 52.5H41.25C43.321 52.5 45 50.821 45 48.75V41.25H48.75C50.821 41.25 52.5 39.571 52.5 37.5V22.5C52.5 20.429 54.179 18.75 56.25 18.75H60V11.25C60 9.179 58.321 7.5 56.25 7.5H48.75C46.679 7.5 45 9.179 45 11.25V18.75H41.25C39.179 18.75 37.5 20.429 37.5 22.5V37.5C37.5 39.571 39.179 41.25 41.25 41.25H45V33.75C45 31.679 46.679 30 48.75 30H52.5V22.5H48.75C46.679 22.5 45 20.821 45 18.75ZM11.25 41.25C9.179 41.25 7.5 39.571 7.5 37.5V22.5C7.5 20.429 9.179 18.75 11.25 18.75H15V41.25H11.25Z" fill="white"/>
</svg>
